<svg xmlns="http://www.w3.org/2000/svg" version="1.1" xlink="http://www.w3.org/1999/xlink" xmlns:svgjs="http://svgjs.com/svgjs" width="100%" height="100%" preserveAspectRatio="xMidYMid meet" viewBox="0 5.877223013817101e-11 299.9984130859375 134.57066345214844" overflow="visible"><defs id="SvgjsDefs3591"></defs><g id="SvgjsG3592" transform="scale(0.6493506493506493)" opacity="1"><g id="SvgjsG3593" class="C-nYO-Mkj" transform="translate(147.84392054304175, 0.0019109461407526753) scale(4.323194846219975)" light-content="false" non-strokable="false" fill="#3b3422"><g><path d="M26.238 4.07c.251.107.501.233.761.358.085.041.166.089.25.134l.248.136.25.136c.084.044.163.098.245.147.163.101.325.202.487.305.159.111.315.225.473.343.072.057.149.109.223.168l.221.176c.073.059.148.117.223.176.075.059.152.116.222.18l.431.374.106.094.101.1.198.201c.079.082.158.159.239.233l.233.227.234.225c.079.075.158.153.231.239a18.4 18.4 0 0 1 1.852 2.418c.036.051.078.127.104.175.151.292.318.564.46.846l.223.417c.071.14.137.284.203.427l.129.279c.044.092.076.188.108.271.11.303.224.58.315.858.048.138.098.273.148.408.051.135.09.274.138.411l.149.454.126.479c.092.328.15.684.221 1.075.018.095.027.19.041.283l.039.272.041.261.021.128.016.125.062.487.031.236.019.234c.024.296.066.4.106.634l.035-.763c.007-.123.003-.241.005-.355l.002-.331c0-.116.004-.237-.003-.363a17.278 17.278 0 0 0-.029-.396c-.01-.138-.023-.283-.039-.436l-.073-.48a13.658 13.658 0 0 0-.471-1.962c-.051-.159-.109-.314-.162-.471l-.082-.235a3.57 3.57 0 0 0-.087-.232l-.186-.463-.093-.232-.102-.229a11.082 11.082 0 0 0-.398-.781c-.228-.448-.535-.953-.741-1.314a9.972 9.972 0 0 0-.451-.692c-.152-.201-.294-.396-.45-.606-.107-.139-.22-.281-.322-.416a14.294 14.294 0 0 0-2.307-2.33c-.106-.087-.212-.175-.326-.256l-.34-.254a15.802 15.802 0 0 0-.175-.133l-.184-.129a17.036 17.036 0 0 0-3.47-1.919l-.434-.164c-.146-.053-.289-.112-.435-.154l-.421-.127c-.135-.039-.262-.079-.383-.103a11.398 11.398 0 0 0-.616-.124c-.181-.03-.336-.038-.449-.044a4.599 4.599 0 0 1-.443-.048 22.238 22.238 0 0 1-.579-.076c-.106-.015-.211-.034-.323-.048-.111-.012-.226-.024-.339-.038-.231-.023-.465-.058-.698-.068-.168-.01-.343-.024-.517-.037a2.565 2.565 0 0 0-.262-.012l-.256-.006c-.099-.001-.191.002-.283.004-.093.004-.187.006-.288.016.134.004.267.024.4.034.134.012.271.023.413.033.143.006.29.024.446.04.157.016.322.03.5.044.461.048.92.116 1.373.204a16.805 16.805 0 0 0-4.542-.204c.049-.007.098-.013.144-.017a14.1 14.1 0 0 0 .437-.068c.131-.024.251-.037.362-.058a1.395 1.395 0 0 0-.272-.039 6.17 6.17 0 0 0-.407.001c-.151.004-.317.01-.486.019l-.511.05a7.954 7.954 0 0 0-.888.128 3.8 3.8 0 0 0-.695.193 3.43 3.43 0 0 1-.214.073c-.082.027-.171.052-.247.083-.37.142-.713.235-1.078.329a5.41 5.41 0 0 0-.718.218 62.05 62.05 0 0 0-.409.147c-.136.047-.265.107-.398.159l-.394.162c-.131.056-.257.119-.387.178-.408.184-.799.385-1.194.616a16.12 16.12 0 0 0-2.31 1.714A15.66 15.66 0 0 0 6.22 8.197l-.179.211a8.632 8.632 0 0 0-.17.22c-.115.145-.227.292-.342.438-.107.153-.213.305-.321.456-.053.077-.108.152-.16.229l-.15.236c-.099.158-.202.314-.298.473l-.277.485c-.096.161-.178.329-.263.495-.082.167-.17.33-.248.499l-.178.404c-.059.134-.122.267-.171.404l-.157.411-.079.206c-.026.068-.047.139-.07.208l-.18.534c-.059.179-.105.36-.152.532-.104.364-.173.731-.261 1.093-.039.183-.068.367-.105.55-.033.184-.072.369-.093.557-.03.227-.066.47-.087.71-.017.241-.031.476-.039.687-.013.868.01 1.753.101 2.641.099.888.255 1.777.482 2.65l.133.484c.023.082.042.163.068.242l.079.239c.067.193.128.39.202.582.076.19.151.381.228.571.043.112.094.218.143.327l.148.325c.095.217.211.426.317.638.288.565.622 1.104.97 1.634.087.132.183.259.274.388.093.128.182.26.28.384l.295.373.145.187.156.18.366.422c.126.136.255.27.383.405l.192.203.202.192c.134.128.268.257.404.382a17.178 17.178 0 0 0 2.114 1.603c.167.105.37.237.497.322.323.206.666.405 1.014.572.123.061.244.122.366.181l.374.163.373.163c.127.05.252.099.381.148 1.399.559 2.878.908 4.375 1.077.473.042.962.087 1.417.1l.371.016c.123 0 .245-.003.367-.005.245-.007.492-.005.75-.033l.371-.033c.124-.01.249-.017.371-.037l.743-.1c.245-.044.493-.089.737-.135.246-.05.488-.112.73-.168l.142-.034.142-.041.283-.082c.188-.055.379-.104.563-.172l.551-.19c.181-.069.356-.145.53-.216l.224-.092c.074-.031.146-.067.22-.101l.436-.204c.147-.065.286-.145.431-.218l.433-.226c.81-.446 1.606-.977 2.288-1.535.316-.252.623-.521.922-.8a16.682 16.682 0 0 0 5.506-12.405c-.001-6.685-3.924-12.453-9.592-15.132z"></path><path d="M1.419 18.231c0-.074.004-.146.01-.219l.014-.218.031-.439c.016-.177.044-.355.066-.534l.036-.267.019-.134.024-.133c.068-.354.125-.711.214-1.061.058-.243.105-.49.177-.729l.1-.361c.033-.121.065-.241.109-.358a17.755 17.755 0 0 1 2.42-4.795l.393-.54.42-.52c.071-.085.136-.175.21-.256l.216-.245.211-.241.103-.119c.034-.039.07-.076.106-.113.195-.206.363-.378.51-.525.154-.144.29-.258.411-.36.108-.1.207-.198.306-.286l.291-.248c.188-.16.359-.312.545-.449l.469-.358c.16-.114.323-.224.485-.336l.244-.169.249-.156.494-.309a16.412 16.412 0 0 1 3.036-1.405c.08-.032.163-.056.246-.082l.248-.077c.165-.051.328-.107.495-.152l.501-.132.25-.066.254-.054.506-.108c.169-.036.341-.059.511-.089l.255-.042c.085-.015.17-.029.257-.038l.515-.06.241-.027.243-.016.482-.033a19.168 19.168 0 0 1 2.898.07c1.128.115 2.22.319 3.316.647 1.072.322 2.139.757 3.141 1.303.472.271.85.468 1.148.65.153.088.289.164.417.231s.238.136.346.192a1.812 1.812 0 0 0-.208-.209 16.001 16.001 0 0 0-.78-.564l-.468-.291a8.908 8.908 0 0 0-.845-.471 4.308 4.308 0 0 0-.719-.293 4.192 4.192 0 0 1-.229-.08c-.088-.031-.179-.068-.265-.091a11.852 11.852 0 0 1-1.138-.425 5.984 5.984 0 0 0-.756-.281l-.445-.141c-.147-.048-.297-.081-.444-.123l-.443-.119c-.148-.037-.298-.066-.448-.1-.469-.11-.934-.191-1.422-.252a17.289 17.289 0 0 0-5.701.348l-.29.062c-.097.023-.193.05-.29.076l-.579.153-.572.179c-.096.03-.192.059-.287.091l-.282.103c-.189.07-.378.135-.564.209l-.555.233c-.092.04-.186.074-.276.12l-.271.13c-.18.088-.364.169-.54.264l-.417.227c-.137.077-.278.148-.411.233l-.401.248-.203.124c-.067.043-.131.088-.196.132l-.503.339c-.168.114-.325.239-.478.355-.327.242-.627.51-.939.762-.153.13-.299.269-.449.402-.15.136-.302.269-.444.415-.174.176-.364.359-.54.551-.17.195-.336.386-.482.56a23.874 23.874 0 0 0-1.646 2.321 20.101 20.101 0 0 0-1.322 2.581l-.204.501c-.033.084-.07.166-.1.251l-.089.255-.106.314c-.034.105-.073.208-.101.316l-.18.638c-.037.123-.063.248-.093.373l-.085.374c-.063.249-.101.501-.147.753a18.473 18.473 0 0 0-.241 2.031c-.013.17-.014.341-.021.511-.004.169-.015.34-.013.51l.007.512.004.255.014.256.037.599c.018.2.041.399.062.598l.032.298.045.297c.032.197.061.395.096.592.177.938.436 1.856.755 2.752.075.2.161.446.214.601.142.387.303.781.494 1.151l.192.396.213.384.211.384.228.375a18.18 18.18 0 0 0 3.035 3.784c.376.347.766.705 1.147 1.013l.306.256c.105.08.211.157.318.235.213.154.424.316.663.462l.337.216c.113.072.224.147.341.212l.7.4.718.368c.243.116.49.223.735.334l.144.065.148.058.296.116c.197.077.392.159.594.221l.596.199c.199.06.399.11.593.163l.252.067c.084.024.169.038.252.058l.507.112c.167.041.339.064.51.097l.518.09c.984.149 2.013.217 2.96.188a20.275 20.275 0 0 0 2.336-.197l.581-.094.146-.023.143-.03.287-.062.284-.062.144-.031.14-.038.557-.152c.1-.025.197-.057.295-.088l.292-.091c.193-.06.387-.115.574-.187l.566-.201c.185-.072.37-.152.554-.229a17.76 17.76 0 0 0 3.347-1.898 13.483 13.483 0 0 0 2.157-1.912l.371-.422c.064-.069.12-.145.177-.215l.164-.209c.104-.137.2-.262.278-.373.074-.115.132-.212.166-.286.085-.171.174-.355.259-.528-.077.033-.24.193-.454.43l-.17.192c-.061.067-.128.135-.195.207-.137.145-.283.302-.434.467-.145.142-.297.297-.44.443a17.52 17.52 0 0 1-2.798 2.296c-.1.073-.208.133-.313.199l-.317.195c-.831.485-1.711.901-2.599 1.25-1.163.452-2.396.748-3.606.962-.907.11-1.763.197-2.6.225-.093.003-.215.007-.32.006-1.054.01-2.15-.106-3.2-.297a17.018 17.018 0 0 1-3.181-.917c-.087-.035-.175-.066-.263-.101l-.256-.114-.513-.228-.499-.254-.247-.128c-.083-.041-.161-.092-.242-.137l-.478-.282-.118-.071-.115-.077-.23-.154c-.151-.104-.306-.202-.454-.312l-.435-.333c-.065-.051-.139-.105-.214-.16l-.216-.172c-.175-.14-.353-.278-.527-.42l-.503-.447-.127-.112c-.041-.038-.08-.078-.121-.118l-.239-.238-.239-.238c-.081-.079-.152-.167-.228-.25-.138-.158-.293-.319-.439-.48a17.414 17.414 0 0 1-1.721-2.322l-.263-.436c-.084-.146-.162-.297-.242-.445l-.116-.223-.059-.112-.055-.114-.219-.458c-.035-.076-.073-.152-.108-.229l-.099-.233-.199-.467c-.066-.156-.12-.317-.182-.474l-.09-.238c-.03-.079-.062-.158-.086-.239a15.526 15.526 0 0 1-.668-2.707l-.051-.324c-.019-.108-.038-.216-.048-.326l-.082-.653c-.022-.218-.032-.436-.044-.654-.005-.109-.014-.218-.009-.327a4.369 4.369 0 0 1 .009-.323c.001-.052-.01-.207-.01-.305-.003-.154.007-.305.01-.455l.009-.443zm35.486-3.807l-.062-.227-.074-.23a18.213 18.213 0 0 0-1.703-3.908c-.085-.14-.174-.282-.262-.424-.09-.141-.174-.285-.271-.417l-.273-.385c-.09-.123-.173-.24-.26-.34a15.68 15.68 0 0 0-.442-.511c-.134-.144-.26-.253-.351-.334a4.607 4.607 0 0 1-.343-.333c-.134-.132-.286-.281-.443-.445-.08-.081-.159-.168-.245-.252l-.265-.254c-.181-.172-.358-.354-.551-.515-.137-.12-.277-.246-.417-.372a4.114 4.114 0 0 0-.215-.181l-.216-.172c-.083-.065-.164-.124-.245-.183a5.079 5.079 0 0 0-.254-.177c.111.091.212.193.321.289.107.098.218.196.333.298.118.098.233.209.357.325.123.116.256.236.399.364a17.304 17.304 0 0 1 2.416 2.829l.312.481c.05.082.106.161.155.247l.151.26c.093.143.187.288.281.436l.27.46c.19.308.35.646.522.992.047.09.085.185.126.278l.124.279.123.28c.042.093.075.19.113.285.073.192.146.386.217.58.062.198.122.399.179.602.026.096.058.192.081.29l.073.296.076.297c.026.099.054.198.073.299l.123.603.029.149.021.151c.014.101.025.201.039.301.015.121.033.239.053.356l.05.347.052.346c.017.117.034.234.041.354a19.508 19.508 0 0 1-.004 3.279c-.002.068-.017.16-.026.219-.061.349-.096.69-.16 1.024l-.083.5c-.031.167-.07.332-.106.498l-.072.323c-.023.108-.058.21-.085.304-.105.331-.189.642-.292.939-.049.15-.097.298-.142.446-.045.149-.102.292-.152.441l-.171.484-.207.492c-.137.341-.321.683-.517 1.062-.047.095-.102.182-.15.269l-.145.258-.137.25c-.021.041-.042.082-.065.122l-.07.117-.267.456-.129.222a8.533 8.533 0 0 1-.137.211c-.174.268-.21.382-.331.608l.526-.631c.085-.1.16-.205.234-.302.077-.098.148-.192.217-.281.076-.1.157-.201.232-.314.075-.112.152-.23.233-.356.08-.125.165-.257.25-.398l.251-.458c.355-.646.629-1.313.881-1.981.059-.168.112-.338.169-.507l.083-.254c.029-.085.057-.17.078-.256l.146-.515.071-.259c.022-.087.042-.175.062-.262.069-.297.125-.603.173-.927.044-.266.1-.555.129-.835l.052-.406.028-.188c.007-.06.012-.12.02-.174.02-.166.034-.32.046-.465.011-.146.022-.284.022-.42l.013-.813c-.002-.189-.005-.383-.003-.565-.005-1.062-.147-2.098-.346-3.066l-.099-.432a5.787 5.787 0 0 0-.109-.431c-.046-.147-.087-.293-.129-.442z"></path><path d="M24.022 37.054c-.082.021-.17.041-.263.063-.093.021-.192.039-.295.061-.206.042-.428.09-.658.141-.213.035-.438.075-.65.116a18.483 18.483 0 0 1-3.816.282l-.099-.001-.098-.005-.197-.011-.392-.026a19.668 19.668 0 0 1-3.008-.5c-1.28-.316-2.527-.81-3.704-1.362-.852-.455-1.643-.9-2.383-1.388-.082-.054-.19-.125-.28-.19-.917-.632-1.794-1.401-2.584-2.203a17.9 17.9 0 0 1-2.19-2.729l-.166-.247-.152-.256-.305-.509c-.091-.175-.185-.349-.276-.522l-.135-.261c-.047-.086-.084-.176-.126-.265a49.372 49.372 0 0 1-.241-.535c-.02-.043-.041-.088-.06-.133l-.053-.136-.105-.273-.104-.272c-.034-.091-.071-.179-.099-.273l-.176-.553a10.095 10.095 0 0 0-.087-.268l-.082-.28c-.065-.228-.135-.455-.199-.683l-.163-.693-.041-.173c-.014-.058-.021-.117-.033-.175l-.062-.352-.062-.352c-.021-.117-.03-.236-.045-.354-.025-.222-.06-.456-.088-.683a18.51 18.51 0 0 1-.075-3.052l.038-.537c.017-.178.042-.355.063-.533l.032-.266.016-.133c.006-.045.015-.089.022-.132l.088-.528c.016-.088.029-.177.045-.265l.057-.262.113-.524c.038-.175.088-.346.131-.52l.066-.261c.023-.086.043-.174.071-.259a16.61 16.61 0 0 1 1.068-2.745l.153-.312.075-.156c.024-.052.053-.103.081-.154.108-.206.218-.41.327-.614.114-.202.238-.397.36-.593.062-.097.12-.196.188-.288l.206-.273c.034-.043.118-.184.178-.269.091-.136.192-.26.285-.387l.277-.376c.045-.064.092-.125.142-.184l.145-.18.294-.359c.12-.144.252-.281.38-.422l.194-.209c.034-.035.065-.071.099-.104l.101-.101c.274-.265.542-.54.831-.787.197-.176.389-.359.596-.523l.307-.252c.101-.083.202-.167.311-.242a18.758 18.758 0 0 1 5.006-2.674c.222-.074.443-.149.667-.226l.679-.194c.113-.031.224-.069.337-.094l.336-.08.329-.081.161-.04c.054-.014.108-.022.16-.034.295-.059.545-.106.762-.144.218-.029.405-.046.571-.061.155-.021.3-.045.44-.061l.402-.038c.259-.024.502-.05.745-.056l.621-.024c.209-.001.417.003.625.004l.312.004.309.017.616.034a17.505 17.505 0 0 1 3.737.712l.261.084c.173.058.351.107.521.169l.513.191.258.095.251.106.503.214c.168.072.33.157.495.234l.246.119c.082.039.165.079.244.124l.481.261c.075.041.151.082.225.124l.219.133.437.265a20.09 20.09 0 0 1 2.459 1.824 18.615 18.615 0 0 1 2.467 2.575c.73.93 1.386 1.954 1.92 3.035.243.52.449.92.596 1.26.077.168.149.317.218.453.036.066.064.133.094.195l.086.181a1.812 1.812 0 0 0-.056-.306 7.48 7.48 0 0 0-.143-.439c-.057-.162-.122-.339-.188-.52l-.229-.535a9.28 9.28 0 0 0-.445-.918 4.633 4.633 0 0 0-.44-.69c-.042-.053-.093-.128-.149-.209-.055-.081-.112-.17-.17-.241a12.795 12.795 0 0 1-.723-1.057 6.745 6.745 0 0 0-.484-.701l-.3-.392c-.048-.065-.101-.127-.153-.188l-.156-.185-.311-.373c-.104-.121-.218-.237-.327-.356-.172-.185-.336-.377-.521-.551-.181-.176-.359-.358-.554-.529a18.261 18.261 0 0 0-2.643-1.919 17.835 17.835 0 0 0-2.485-1.242l-.29-.122c-.097-.04-.197-.074-.295-.111l-.592-.22-.603-.192c-.101-.032-.2-.065-.302-.095l-.306-.083c-.206-.054-.409-.112-.614-.162l-.622-.136c-.103-.021-.205-.048-.31-.063L22.396.27l-.313-.053c-.104-.016-.208-.037-.314-.048-.166-.018-.331-.038-.497-.057-.167-.017-.33-.041-.497-.047l-.498-.031-.25-.016c-.082-.004-.165-.003-.249-.005L19.139 0c-.213-.003-.426.01-.629.017-.429.009-.85.058-1.273.087-.21.019-.421.05-.631.074-.211.026-.423.049-.634.089-.257.046-.532.089-.8.148-.265.063-.525.128-.756.189-.946.277-1.898.602-2.831 1.002-.929.408-1.84.882-2.709 1.424l-.48.31c-.079.052-.161.101-.237.156l-.232.167-.282.206c-.094.069-.191.135-.279.211l-.544.44c-.105.084-.204.177-.305.267l-.301.271c-.205.176-.392.372-.585.561a19.318 19.318 0 0 0-1.443 1.606c-.111.139-.217.285-.326.428l-.162.216c-.055.073-.11.143-.16.219l-.304.445-.152.222-.143.231-.332.539c-.105.184-.206.37-.309.554l-.154.277-.14.284c-.093.19-.188.378-.277.569a19.567 19.567 0 0 0-1.021 2.835c-.057.217-.131.482-.179.648-.111.422-.212.86-.273 1.294l-.074.459-.05.46-.051.459-.031.463c-.131 1.707-.004 3.43.322 5.11.115.526.234 1.073.376 1.569l.109.408c.042.133.087.264.131.396.091.262.174.531.291.802l.161.392c.054.131.104.263.167.39.12.256.237.515.359.771l.398.753c.139.249.288.491.431.735l.084.143.092.139.184.28c.125.187.243.376.379.552.133.18.263.358.395.533.135.173.276.338.413.501l.176.211c.058.071.123.136.183.204l.37.404c.12.138.254.262.382.393l.392.393a17.648 17.648 0 0 0 2.441 1.96c.676.458 1.401.869 2.136 1.25l.558.271.14.067.142.061.284.121.284.121.142.059.144.052.573.208c.102.039.206.071.309.103l.308.098c.203.065.404.135.609.188l.61.17c.206.051.412.094.618.14 1.332.278 2.685.408 4.043.395a14.474 14.474 0 0 0 3.024-.337l.577-.137c.098-.021.191-.052.283-.078l.27-.081c.174-.053.333-.103.468-.15.134-.054.243-.102.318-.143l.547-.292c-.084-.014-.322.026-.651.102zm14.444-17.6c-.001-.16-.001-.311-.015-.45-.02-.264-.044-.503-.068-.71-.011-.103-.033-.196-.048-.281a6.146 6.146 0 0 0-.048-.22 5.252 5.252 0 0 1-.091-.497 23.458 23.458 0 0 1-.111-.653c-.02-.118-.035-.241-.057-.366l-.074-.38c-.052-.258-.095-.525-.163-.78l-.135-.573a3.476 3.476 0 0 0-.075-.288l-.082-.28a7.897 7.897 0 0 0-.099-.306c-.035-.1-.068-.201-.112-.308.042.146.067.296.103.446.034.149.069.301.108.458.042.157.073.322.11.497.037.174.078.358.124.557.265 1.291.387 2.602.37 3.908l-.023.606c-.005.101-.006.204-.015.308l-.029.316-.02.546-.048.562c-.025.38-.092.769-.153 1.171-.015.108-.039.212-.06.317l-.065.316-.064.317c-.02.106-.051.209-.076.315-.054.209-.108.42-.166.631-.067.209-.137.418-.21.628-.037.099-.067.201-.106.3l-.116.3-.115.302c-.039.102-.074.203-.12.302l-.259.595-.067.147-.073.144c-.05.094-.099.189-.15.283a7.637 7.637 0 0 0-.17.338l-.167.33-.166.33a3.852 3.852 0 0 1-.182.331 20.354 20.354 0 0 1-1.995 2.827c-.043.057-.111.127-.155.173-.264.264-.5.538-.76.787l-.376.383c-.128.124-.262.243-.395.365l-.258.234c-.086.08-.179.147-.258.21-.291.223-.552.44-.822.633-.132.1-.264.199-.393.299-.064.052-.131.097-.198.145l-.202.142c-.145.104-.291.208-.442.314l-.478.298c-.325.211-.692.394-1.091.603-.097.053-.197.094-.292.141-.096.046-.189.091-.282.134l-.269.132-.131.065-.132.058-.508.231-.246.111-.247.099c-.313.124-.413.199-.654.318l.834-.229c.135-.033.261-.08.386-.119l.356-.113c.125-.041.258-.079.39-.129a26.642 26.642 0 0 0 .872-.361l.493-.243c.699-.342 1.338-.752 1.961-1.175.154-.108.302-.223.454-.335l.226-.168c.076-.056.151-.111.224-.173l.437-.357.22-.179.212-.188c.24-.215.475-.444.712-.693.199-.203.422-.418.617-.643l.293-.318.137-.146c.045-.047.084-.095.123-.139.117-.131.222-.255.321-.373.099-.119.193-.231.275-.349.167-.231.328-.451.504-.692.113-.164.229-.334.34-.49.639-.919 1.146-1.897 1.562-2.853l.177-.431.088-.217c.031-.072.053-.147.081-.222l.161-.454.084-.233.076-.242c.47-1.431.781-2.917.905-4.404l.03-.524c.008-.176.024-.351.02-.524l-.004-.495z"></path></g></g><g id="SvgjsG3594" class="dzprAAb9Oa" transform="translate(168.26043961649728, 19.97884230347511) scale(1.249063064765727)" light-content="true" non-strokable="false" fill="#ffffff"><path d="M43.417 26.05c2.101 0 3.222 3.501 3.081 5.882 0 .902-1.187 3.85-1.84 5.045-.122.223-.046.525.186.628 1.577.7 3.367 1.05 5.156 1.05 1.77 0 3.426-.342 4.865-.924.237-.096.313-.393.21-.627-.243-.56-.376-1.381-.593-2.79-.28-1.261-.56-3.222-1.12-5.883-1.121-5.322-3.362-5.322-6.443-5.322h-.7c-4.272 0-4.825 1.74-4.893 2.907-.012.192.17.335.358.296.483-.101 1.318-.262 1.733-.262z"></path><path d="M50 40.196c-2.42 0-4.712-.517-6.75-1.55a.51.51 0 0 0-.496.017l-3.398 2.059a1.916 1.916 0 0 0-.938 1.741C38.9 50.72 43.18 58.04 49.452 62.506a.953.953 0 0 0 1.1.005c6.391-4.466 10.557-11.788 11.031-20.048a1.919 1.919 0 0 0-.94-1.741l-3.397-2.06a.51.51 0 0 0-.495-.015c-2.039 1.032-4.33 1.549-6.751 1.549z"></path><path d="M42.157 37.115c.419-.252.632-.742.53-1.22-.783-3.663-1.674-7.307-5.852-9.005-6.252-2.43-23.22-7.35-28.918-8.983-.956-.274-1.699.436-1.206 1.301.26.456.535.864.711 1.1.42.7.98 1.12 1.68 1.4l8.404 2.101c-2.8-.56-5.742-.98-8.683-1.54h-.42v.42c.14.84.28 1.54.7 2.24.42.56.98.98 1.54 1.261l10.785 1.82c-2.801-.14-6.863-.42-9.804-.56h-.42l.14.28c.14.841.56 1.541.98 2.102.42.56.98.98 1.68.98l13.026.98h-2.52c-2.662 0-5.463 0-8.264.14h-.42l.14.28c.28.7.56 1.401.98 1.821.42.56.98.84 1.54.84h12.186c-.56 0-.98.14-1.54.14-2.522.561-5.323.841-8.124 1.121h-.42l.14.28c.28.7.7 1.4 1.12 1.821.56.42 1.12.7 1.68.7l9.105-.7c-2.661.56-5.323 1.26-7.984 1.82l-.28.14.14.281c.42.7.84 1.26 1.4 1.68.561.42 1.121.561 1.682.561l6.582-1.26-6.442 2.38-.28.14.14.28c.42.7.98 1.121 1.54 1.541.56.28 1.12.42 1.681.28l4.622-1.26c-1.96.84-3.081 1.4-5.042 2.24l-.28.14.28.28c.42.561.98 1.121 1.68 1.401.56.28 1.261.42 1.821.14l2.241-.7c-.84.84-1.54 1.681-2.38 2.521l-.28.28.28.14c.7.42 1.4.56 2.1.56.7 0 1.4-.14 1.82-.56-.42.7-.84 1.401-1.26 1.961l-.14.28.28.14c.56.28 1.12.28 1.681.28h.42c.42 0 .84-.28 1.12-.42-.56-.98-.98-2.1-1.4-3.22-.42-1.121-.7-2.242-.98-3.502-.14-.84-.28-1.821-.42-2.662-.14-.84-.14-1.82-.14-2.66 0-.613.306-1.185.815-1.525l.025-.016 4.482-2.801zm15.686 0a1.144 1.144 0 0 1-.53-1.22c.783-3.663 1.674-7.307 5.852-9.005 6.908-2.686 26.902-8.41 30.315-9.382.255-.073.485.123.41.378-.25.85-.969 1.963-1.312 2.422-.42.7-.98 1.12-1.68 1.4l-8.404 2.101c2.8-.56 5.742-.98 8.683-1.54h.42v.42c-.14.84-.28 1.54-.7 2.24-.42.56-.98.98-1.54 1.261l-10.785 1.82c2.801-.14 6.863-.42 9.804-.56h.42l-.14.28c-.14.841-.56 1.541-.98 2.102-.42.56-.98.98-1.68.98l-13.026.98h2.52c2.662 0 5.463 0 8.264.14h.42l-.14.56c-.28.701-.56 1.401-.98 1.821-.42.56-.98.84-1.54.84H69.327c.56 0 .98.14 1.54.14 2.662.281 5.463.421 8.264.701h.42l-.14.28c-.28.7-.7 1.4-1.12 1.821-.7.7-1.26.84-1.82.84l-9.105-.7c2.661.56 5.322 1.26 7.984 1.82l.28.14-.14.281c-.42.7-.84 1.26-1.4 1.68a2.697 2.697 0 0 1-1.682.561l-6.582-1.26 6.442 2.38.28.14-.14.28c-.42.7-.98 1.121-1.54 1.541-.56.28-1.12.42-1.681.28l-4.622-1.26c1.96.84 3.081 1.4 5.042 2.24l.28.14-.14.14c-.42.561-.98 1.121-1.68 1.401-.56.28-1.261.42-1.821.14l-2.241-.7c.84.84 1.54 1.68 2.38 2.521l.281.28-.28.14c-.7.42-1.4.56-2.101.56-.7 0-1.4-.14-1.82-.56.42.7.84 1.401 1.26 1.961l.14.28-.28.14c-.56.28-1.12.28-1.681.28h-.42c-.42 0-.84-.28-1.12-.42.56-.98.98-2.1 1.4-3.22.42-1.121.7-2.242.98-3.502.14-.84.28-1.821.42-2.662.14-.84.14-1.82.14-2.66 0-.613-.306-1.185-.815-1.525l-.025-.016-4.622-2.661zm-.039 41.835a.979.979 0 0 0 .493-1.172c-.28-.918-.738-2.444-1.014-3.548L50 68.768l-7.283 5.322c-.272 1.177-.719 2.647-1.001 3.54a.984.984 0 0 0 .492 1.185c.714.352 1.779.845 2.47 1.017.42-2.1.98-4.341 1.26-6.442-.242 2.185-.38 4.58-.595 6.64a.998.998 0 0 0 .809 1.094c.47.083.968.166 1.467.25.14-2.382.56-5.323.98-8.124-.121 2.795-.348 5.907-.498 8.329a.995.995 0 0 0 .995 1.055h1.954c.572 0 1.027-.478 1-1.05-.124-2.734-.262-6.351-.51-9.315.28 2.942.841 6.443 1.121 9.104l1.514-.168c.554-.062.95-.564.885-1.118-.242-2.04-.499-4.401-.858-6.557.42 2.1.98 4.342 1.4 6.302.518-.086 1.513-.544 2.202-.883z"></path><path d="M84.735 43.557c0-.14-.14-.14-.14-.14l.28-.28h.28c.84 0 1.4-.7 1.4-1.4s-.7-1.401-1.4-1.401c-.84 0-1.4.7-1.4 1.4l-23.53 16.107c-.256-.425-.511-.799-.704-1.09-.128-.194-.436-.2-.563-.004-.91 1.414-1.936 2.91-3.075 4.176l-5.743 3.921-5.602-3.781a36.453 36.453 0 0 1-3.252-4.236.29.29 0 0 0-.493.005c-.208.349-.437.75-.737 1.15l-23.95-16.248c0-.7-.7-1.4-1.4-1.4-.841 0-1.401.7-1.401 1.4s.7 1.401 1.4 1.401c.14 0 .28 0 .42-.14l.42.28-.14.14c-3.22 7.143-7.405 19.171 4.5 28.275 8.64 6.48 17.02 4.309 20.404 2.976.394-.156.267-.724-.156-.758-4.16-.341-13.914-2.772-6.96-18.588l5.742 3.922c-1.12 1.4-2.1 2.801-2.38 3.081l-.42-.14c-.14-.14-.42-.28-.561-.42-.28-.14-.42-.14-.7-.14-.28 0-.42 0-.7.14-.42.14-.42 0-.42.14a4.51 4.51 0 0 0-.766 1.47c-.088.279.241.456.456.259a9.18 9.18 0 0 1 .73-.608c.28.14.98.14 1.4.14.14 0 .42.14.42.14.28.14.28.56.28.7-.56.42-.84 1.54-.7 2.1 0 .205-.033.443-.067.681a.264.264 0 0 0 .455.225c.135-.142.25-.3.312-.485.7-.28 1.26-1.4 1.12-2.101 0 0 .561-.28.841-.28.42 0 1.54.84 1.96.84.165.411.282.726.406 1.057.098.262.455.248.513-.025a4.615 4.615 0 0 0 .062-1.732c0-.14-.14 0-.28-.28-.14-.14-.28-.42-.56-.42-.28-.14-.42-.14-.7-.14-.28 0-.42 0-.7.14-.14 0-.28 0-.42-.14-.14-.56 2.24-1.12 4.481-1.26l5.602 3.78-6.862 4.623c-.14.14-.28.28-.42.56 0 .28 0 .42.14.7.14.14.28.28.42.28h.42c.14 0 .28 0 .42-.14l7.423-5.042 7.423 5.042c.14.14.28.14.42.14h.42c.14 0 .28-.14.42-.28v-.7c0-.28-.14-.42-.42-.56l-6.862-4.622 5.602-3.782c2.241.14 4.622.7 4.482 1.26 0 0-.28.14-.42.14-.28-.14-.42-.14-.7-.14-.28 0-.42.14-.7.14-.281.14-.421.28-.561.42-.28.281-.42.14-.28.281-.098.587-.127 1.173.007 1.76.062.271.43.252.534-.006.13-.324.285-.668.44-1.054.42 0 1.54-.84 1.96-.84.14 0 .84.28.84.28-.14.84.42 1.96 1.12 2.1.115.172.23.32.344.455a.27.27 0 0 0 .478-.197 2.88 2.88 0 0 0-.12-.677c.14-.7-.14-1.681-.701-2.101 0-.14.14-.56.28-.7.14 0 .42-.14.42-.14.42 0 1.12 0 1.4-.14.335.25.62.502.885.752.194.184.488.05.42-.208-.155-.592-.484-1.164-.884-1.665 0-.14-.14 0-.42-.14-.28-.14-.42-.14-.7-.14-.28 0-.42 0-.7.14-.281.14-.421.28-.561.42l-.42.14c-.28-.28-1.4-1.68-2.381-3.081l5.742-3.922c6.834 15.796-2.82 18.24-6.958 18.586-.423.036-.55.605-.155.76 3.384 1.334 11.763 3.503 20.401-2.976 11.906-8.964 7.861-20.992 4.5-28.135zm-67.229 2.661l-.42-1.68 14.847 10.084c-6.163 1.26-12.466-2.241-14.427-8.404zm64.988 0c-1.961 6.163-8.264 9.664-14.426 8.544l14.846-10.224c-.14.56-.14 1.12-.42 1.68z"></path></g><g id="SvgjsG3595" class="text" transform="translate(231, 206.9087947255034) scale(1)" light-content="false" fill="#3b3422"><path d="M-224.55 -0.16C-224.47 -0.08 -224.36 -0.04 -224.24 -0.04L-220.02 -0.04C-219.9 -0.04 -219.79 -0.08 -219.71 -0.16C-219.62 -0.25 -219.58 -0.35 -219.58 -0.47L-219.58 -9.72L-219.55 -9.94L-213.26 -24.79C-213.21 -24.93 -213.21 -25.05 -213.26 -25.15C-213.31 -25.25 -213.42 -25.29 -213.58 -25.29L-218.14 -25.29C-218.4 -25.29 -218.57 -25.17 -218.64 -24.93L-222 -15.79C-222.03 -15.72 -222.06 -15.68 -222.11 -15.68C-222.16 -15.68 -222.2 -15.72 -222.22 -15.79L-225.58 -24.93C-225.65 -25.17 -225.82 -25.29 -226.09 -25.29L-230.64 -25.29C-230.88 -25.29 -231 -25.2 -231 -25C-231 -24.91 -230.99 -24.84 -230.96 -24.79L-224.71 -9.94L-224.68 -9.72L-224.68 -0.47C-224.68 -0.35 -224.63 -0.25 -224.55 -0.16Z M-195.32 -21.05C-195.23 -21.13 -195.19 -21.23 -195.19 -21.35L-195.19 -24.86C-195.19 -24.98 -195.23 -25.08 -195.32 -25.17C-195.4 -25.25 -195.51 -25.29 -195.63 -25.29L-210.15 -25.29C-210.27 -25.29 -210.37 -25.25 -210.46 -25.17C-210.54 -25.08 -210.58 -24.98 -210.58 -24.86L-210.58 -0.43C-210.58 -0.31 -210.54 -0.21 -210.46 -0.13C-210.37 -0.04 -210.27 0 -210.15 0L-195.63 0C-195.51 0 -195.4 -0.04 -195.32 -0.13C-195.23 -0.21 -195.19 -0.31 -195.19 -0.43L-195.19 -3.94C-195.19 -4.06 -195.23 -4.16 -195.32 -4.25C-195.4 -4.33 -195.51 -4.37 -195.63 -4.37L-205.31 -4.37C-205.43 -4.37 -205.49 -4.43 -205.49 -4.55L-205.49 -10.37C-205.49 -10.49 -205.43 -10.55 -205.31 -10.55L-199.27 -10.55C-199.15 -10.55 -199.05 -10.59 -198.97 -10.68C-198.88 -10.76 -198.84 -10.86 -198.84 -10.98L-198.84 -14.49C-198.84 -14.61 -198.88 -14.71 -198.97 -14.8C-199.05 -14.88 -199.15 -14.92 -199.27 -14.92L-205.31 -14.92C-205.43 -14.92 -205.49 -14.98 -205.49 -15.1L-205.49 -20.74C-205.49 -20.86 -205.43 -20.92 -205.31 -20.92L-195.63 -20.92C-195.51 -20.92 -195.4 -20.96 -195.32 -21.05Z M-191.99 -0.13C-191.91 -0.04 -191.81 0 -191.69 0L-187.46 0C-187.34 0 -187.24 -0.04 -187.15 -0.13C-187.07 -0.21 -187.03 -0.31 -187.03 -0.43L-187.03 -16.12C-187.03 -16.21 -187 -16.27 -186.95 -16.28C-186.91 -16.29 -186.86 -16.26 -186.81 -16.19L-183.92 -10.8C-183.82 -10.61 -183.64 -10.51 -183.38 -10.51L-182.15 -10.51C-181.91 -10.51 -181.73 -10.61 -181.61 -10.8L-178.68 -16.15C-178.63 -16.22 -178.58 -16.26 -178.53 -16.26C-178.49 -16.26 -178.46 -16.21 -178.46 -16.12L-178.46 -0.43C-178.46 -0.31 -178.42 -0.21 -178.34 -0.13C-178.25 -0.04 -178.15 0 -178.03 0L-173.8 0C-173.68 0 -173.58 -0.04 -173.49 -0.13C-173.41 -0.21 -173.37 -0.31 -173.37 -0.43L-173.37 -24.86C-173.37 -24.98 -173.41 -25.08 -173.49 -25.17C-173.58 -25.25 -173.68 -25.29 -173.8 -25.29L-177.96 -25.29C-178.2 -25.29 -178.38 -25.2 -178.5 -25L-182.65 -17.45C-182.73 -17.36 -182.8 -17.36 -182.87 -17.45L-186.99 -25C-187.11 -25.2 -187.29 -25.29 -187.53 -25.29L-191.69 -25.29C-191.81 -25.29 -191.91 -25.25 -191.99 -25.17C-192.08 -25.08 -192.12 -24.98 -192.12 -24.86L-192.12 -0.43C-192.12 -0.31 -192.08 -0.21 -191.99 -0.13Z M-154.45 -21.05C-154.37 -21.13 -154.33 -21.23 -154.33 -21.35L-154.33 -24.86C-154.33 -24.98 -154.37 -25.08 -154.45 -25.17C-154.54 -25.25 -154.64 -25.29 -154.76 -25.29L-169.28 -25.29C-169.4 -25.29 -169.51 -25.25 -169.59 -25.17C-169.68 -25.08 -169.72 -24.98 -169.72 -24.86L-169.72 -0.43C-169.72 -0.31 -169.68 -0.21 -169.59 -0.13C-169.51 -0.04 -169.4 0 -169.28 0L-154.76 0C-154.64 0 -154.54 -0.04 -154.45 -0.13C-154.37 -0.21 -154.33 -0.31 -154.33 -0.43L-154.33 -3.94C-154.33 -4.06 -154.37 -4.16 -154.45 -4.25C-154.54 -4.33 -154.64 -4.37 -154.76 -4.37L-164.44 -4.37C-164.56 -4.37 -164.62 -4.43 -164.62 -4.55L-164.62 -10.37C-164.62 -10.49 -164.56 -10.55 -164.44 -10.55L-158.41 -10.55C-158.29 -10.55 -158.19 -10.59 -158.1 -10.68C-158.02 -10.76 -157.97 -10.86 -157.97 -10.98L-157.97 -14.49C-157.97 -14.61 -158.02 -14.71 -158.1 -14.8C-158.19 -14.88 -158.29 -14.92 -158.41 -14.92L-164.44 -14.92C-164.56 -14.92 -164.62 -14.98 -164.62 -15.1L-164.62 -20.74C-164.62 -20.86 -164.56 -20.92 -164.44 -20.92L-154.76 -20.92C-154.64 -20.92 -154.54 -20.96 -154.45 -21.05Z M-151.13 -0.13C-151.04 -0.04 -150.94 0 -150.82 0L-146.63 0C-146.51 0 -146.41 -0.04 -146.32 -0.13C-146.24 -0.21 -146.2 -0.31 -146.2 -0.43L-146.27 -14.78C-146.27 -14.87 -146.24 -14.93 -146.2 -14.94C-146.15 -14.95 -146.1 -14.92 -146.05 -14.85L-139.11 -0.33C-138.99 -0.11 -138.82 0 -138.61 0L-134.31 0C-134.19 0 -134.09 -0.04 -134 -0.13C-133.92 -0.21 -133.87 -0.31 -133.87 -0.43L-133.87 -24.86C-133.87 -24.98 -133.92 -25.08 -134 -25.17C-134.08 -25.25 -134.19 -25.29 -134.31 -25.29L-138.5 -25.29C-138.62 -25.29 -138.72 -25.25 -138.81 -25.17C-138.89 -25.08 -138.93 -24.98 -138.93 -24.86L-138.9 -10.62C-138.9 -10.53 -138.92 -10.47 -138.97 -10.46C-139.02 -10.45 -139.06 -10.48 -139.11 -10.55L-146.05 -24.97C-146.15 -25.18 -146.32 -25.29 -146.56 -25.29L-150.82 -25.29C-150.94 -25.29 -151.04 -25.25 -151.13 -25.17C-151.21 -25.08 -151.25 -24.98 -151.25 -24.86L-151.25 -0.43C-151.25 -0.31 -151.21 -0.21 -151.13 -0.13Z M-122.73 -0.13C-122.64 -0.04 -122.54 0 -122.42 0L-118.23 0C-118.11 0 -118.01 -0.04 -117.92 -0.13C-117.84 -0.21 -117.79 -0.31 -117.79 -0.43L-117.87 -14.78C-117.87 -14.87 -117.84 -14.93 -117.79 -14.94C-117.75 -14.95 -117.7 -14.92 -117.65 -14.85L-110.71 -0.33C-110.59 -0.11 -110.42 0 -110.21 0L-105.91 0C-105.79 0 -105.68 -0.04 -105.6 -0.13C-105.52 -0.21 -105.47 -0.31 -105.47 -0.43L-105.47 -24.86C-105.47 -24.98 -105.52 -25.08 -105.6 -25.17C-105.68 -25.25 -105.79 -25.29 -105.91 -25.29L-110.1 -25.29C-110.22 -25.29 -110.32 -25.25 -110.41 -25.17C-110.49 -25.08 -110.53 -24.98 -110.53 -24.86L-110.5 -10.62C-110.5 -10.53 -110.52 -10.47 -110.57 -10.46C-110.62 -10.45 -110.66 -10.48 -110.71 -10.55L-117.65 -24.97C-117.75 -25.18 -117.91 -25.29 -118.16 -25.29L-122.42 -25.29C-122.54 -25.29 -122.64 -25.25 -122.73 -25.17C-122.81 -25.08 -122.85 -24.98 -122.85 -24.86L-122.85 -0.43C-122.85 -0.31 -122.81 -0.21 -122.73 -0.13Z M-88.63 -0.36C-88.56 -0.12 -88.41 0 -88.17 0L-83.72 0C-83.46 0 -83.32 -0.11 -83.32 -0.33L-83.36 -0.47L-89.9 -24.93C-89.97 -25.17 -90.14 -25.29 -90.41 -25.29L-95.64 -25.29C-95.91 -25.29 -96.08 -25.17 -96.15 -24.93L-102.65 -0.47C-102.73 -0.16 -102.61 0 -102.29 0L-97.92 0C-97.66 0 -97.49 -0.12 -97.42 -0.36L-96.58 -3.9C-96.56 -4 -96.5 -4.05 -96.4 -4.05L-89.65 -4.05C-89.55 -4.05 -89.49 -4 -89.47 -3.9ZM-95.54 -8.04C-95.58 -8.08 -95.6 -8.13 -95.57 -8.2L-93.08 -18.46C-93.06 -18.54 -93.02 -18.58 -92.97 -18.59C-92.92 -18.6 -92.89 -18.56 -92.86 -18.46L-90.44 -8.2C-90.42 -8.13 -90.43 -8.08 -90.48 -8.04C-90.53 -8 -90.57 -7.99 -90.62 -7.99L-95.39 -7.99C-95.44 -7.99 -95.49 -8 -95.54 -8.04Z M-67.12 -25.17C-67.2 -25.25 -67.3 -25.29 -67.42 -25.29L-83.68 -25.29C-83.81 -25.29 -83.91 -25.25 -83.99 -25.17C-84.08 -25.08 -84.12 -24.98 -84.12 -24.86L-84.12 -21.32C-84.12 -21.2 -84.08 -21.1 -83.99 -21.01C-83.91 -20.93 -83.81 -20.89 -83.68 -20.89L-78.37 -20.89C-78.25 -20.89 -78.19 -20.82 -78.19 -20.7L-78.19 -0.43C-78.19 -0.31 -78.15 -0.21 -78.07 -0.13C-77.98 -0.04 -77.88 0 -77.76 0L-73.53 0C-73.41 0 -73.31 -0.04 -73.22 -0.13C-73.14 -0.21 -73.1 -0.31 -73.1 -0.43L-73.1 -20.7C-73.1 -20.82 -73.04 -20.89 -72.92 -20.89L-67.42 -20.89C-67.3 -20.89 -67.2 -20.93 -67.12 -21.01C-67.03 -21.1 -66.99 -21.2 -66.99 -21.32L-66.99 -24.86C-66.99 -24.98 -67.03 -25.08 -67.12 -25.17Z M-64.01 -0.13C-63.93 -0.04 -63.82 0 -63.7 0L-59.48 0C-59.35 0 -59.25 -0.04 -59.17 -0.13C-59.08 -0.21 -59.04 -0.31 -59.04 -0.43L-59.04 -24.86C-59.04 -24.98 -59.08 -25.08 -59.17 -25.17C-59.25 -25.25 -59.35 -25.29 -59.48 -25.29L-63.7 -25.29C-63.82 -25.29 -63.93 -25.25 -64.01 -25.17C-64.09 -25.08 -64.14 -24.98 -64.14 -24.86L-64.14 -0.43C-64.14 -0.31 -64.09 -0.21 -64.01 -0.13Z M-51.69 -0.69C-50.42 -0.01 -48.96 0.33 -47.3 0.33C-45.64 0.33 -44.17 -0.01 -42.89 -0.69C-41.61 -1.36 -40.63 -2.31 -39.93 -3.54C-39.23 -4.77 -38.88 -6.2 -38.88 -7.84L-38.88 -17.45C-38.88 -19.07 -39.23 -20.49 -39.93 -21.72C-40.63 -22.94 -41.61 -23.9 -42.89 -24.57C-44.17 -25.25 -45.64 -25.58 -47.3 -25.58C-48.96 -25.58 -50.42 -25.25 -51.69 -24.57C-52.95 -23.9 -53.93 -22.94 -54.63 -21.72C-55.33 -20.49 -55.68 -19.07 -55.68 -17.45L-55.68 -7.84C-55.68 -6.2 -55.33 -4.77 -54.63 -3.54C-53.93 -2.31 -52.95 -1.36 -51.69 -0.69ZM-44.88 -5.04C-45.48 -4.38 -46.29 -4.05 -47.3 -4.05C-48.29 -4.05 -49.08 -4.38 -49.68 -5.04C-50.29 -5.7 -50.59 -6.56 -50.59 -7.62L-50.59 -17.6C-50.59 -18.68 -50.29 -19.55 -49.68 -20.22C-49.08 -20.88 -48.29 -21.21 -47.3 -21.21C-46.29 -21.21 -45.48 -20.88 -44.88 -20.22C-44.28 -19.55 -43.97 -18.68 -43.97 -17.6L-43.97 -7.62C-43.97 -6.56 -44.28 -5.7 -44.88 -5.04Z M-35.36 -0.13C-35.27 -0.04 -35.17 0 -35.05 0L-30.86 0C-30.74 0 -30.64 -0.04 -30.55 -0.13C-30.47 -0.21 -30.42 -0.31 -30.42 -0.43L-30.5 -14.78C-30.5 -14.87 -30.47 -14.93 -30.42 -14.94C-30.38 -14.95 -30.33 -14.92 -30.28 -14.85L-23.34 -0.33C-23.22 -0.11 -23.05 0 -22.84 0L-18.54 0C-18.42 0 -18.31 -0.04 -18.23 -0.13C-18.14 -0.21 -18.1 -0.31 -18.1 -0.43L-18.1 -24.86C-18.1 -24.98 -18.14 -25.08 -18.23 -25.17C-18.31 -25.25 -18.42 -25.29 -18.54 -25.29L-22.73 -25.29C-22.85 -25.29 -22.95 -25.25 -23.03 -25.17C-23.12 -25.08 -23.16 -24.98 -23.16 -24.86L-23.13 -10.62C-23.13 -10.53 -23.15 -10.47 -23.2 -10.46C-23.25 -10.45 -23.29 -10.48 -23.34 -10.55L-30.28 -24.97C-30.38 -25.18 -30.54 -25.29 -30.79 -25.29L-35.05 -25.29C-35.17 -25.29 -35.27 -25.25 -35.36 -25.17C-35.44 -25.08 -35.48 -24.98 -35.48 -24.86L-35.48 -0.43C-35.48 -0.31 -35.44 -0.21 -35.36 -0.13Z M-1.26 -0.36C-1.19 -0.12 -1.04 0 -0.79 0L3.65 0C3.91 0 4.05 -0.11 4.05 -0.33L4.01 -0.47L-2.53 -24.93C-2.6 -25.17 -2.77 -25.29 -3.04 -25.29L-8.27 -25.29C-8.54 -25.29 -8.71 -25.17 -8.78 -24.93L-15.28 -0.47C-15.36 -0.16 -15.24 0 -14.92 0L-10.55 0C-10.29 0 -10.12 -0.12 -10.05 -0.36L-9.21 -3.9C-9.19 -4 -9.13 -4.05 -9.03 -4.05L-2.28 -4.05C-2.18 -4.05 -2.12 -4 -2.1 -3.9ZM-8.17 -8.04C-8.21 -8.08 -8.23 -8.13 -8.2 -8.2L-5.71 -18.46C-5.68 -18.54 -5.65 -18.58 -5.6 -18.59C-5.55 -18.6 -5.52 -18.56 -5.49 -18.46L-3.07 -8.2C-3.05 -8.13 -3.06 -8.08 -3.11 -8.04C-3.16 -8 -3.2 -7.99 -3.25 -7.99L-8.02 -7.99C-8.07 -7.99 -8.12 -8 -8.17 -8.04Z M6.99 -0.13C7.08 -0.04 7.18 0 7.3 0L21.82 0C21.94 0 22.05 -0.04 22.13 -0.13C22.22 -0.21 22.26 -0.31 22.26 -0.43L22.26 -3.94C22.26 -4.06 22.22 -4.16 22.13 -4.25C22.05 -4.33 21.94 -4.37 21.82 -4.37L12.14 -4.37C12.02 -4.37 11.96 -4.43 11.96 -4.55L11.96 -24.86C11.96 -24.98 11.92 -25.08 11.83 -25.17C11.75 -25.25 11.65 -25.29 11.53 -25.29L7.3 -25.29C7.18 -25.29 7.08 -25.25 6.99 -25.17C6.91 -25.08 6.87 -24.98 6.87 -24.86L6.87 -0.43C6.87 -0.31 6.91 -0.21 6.99 -0.13Z M37.63 -0.16C37.72 -0.08 37.82 -0.04 37.94 -0.04L42.17 -0.04C42.29 -0.04 42.39 -0.08 42.47 -0.16C42.56 -0.25 42.6 -0.35 42.6 -0.47L42.6 -9.72L42.64 -9.94L48.92 -24.79C48.97 -24.93 48.97 -25.05 48.92 -25.15C48.88 -25.25 48.77 -25.29 48.6 -25.29L44.05 -25.29C43.78 -25.29 43.61 -25.17 43.54 -24.93L40.18 -15.79C40.16 -15.72 40.12 -15.68 40.07 -15.68C40.02 -15.68 39.99 -15.72 39.96 -15.79L36.6 -24.93C36.53 -25.17 36.36 -25.29 36.1 -25.29L31.54 -25.29C31.3 -25.29 31.18 -25.2 31.18 -25C31.18 -24.91 31.2 -24.84 31.22 -24.79L37.47 -9.94L37.51 -9.72L37.51 -0.47C37.51 -0.35 37.55 -0.25 37.63 -0.16Z M54.36 -0.69C55.63 -0.01 57.09 0.33 58.75 0.33C60.41 0.33 61.88 -0.01 63.16 -0.69C64.44 -1.36 65.43 -2.31 66.12 -3.54C66.82 -4.77 67.17 -6.2 67.17 -7.84L67.17 -17.45C67.17 -19.07 66.82 -20.49 66.12 -21.72C65.43 -22.94 64.44 -23.9 63.16 -24.57C61.88 -25.25 60.41 -25.58 58.75 -25.58C57.09 -25.58 55.63 -25.25 54.36 -24.57C53.1 -23.9 52.12 -22.94 51.42 -21.72C50.72 -20.49 50.37 -19.07 50.37 -17.45L50.37 -7.84C50.37 -6.2 50.72 -4.77 51.42 -3.54C52.12 -2.31 53.1 -1.36 54.36 -0.69ZM61.17 -5.04C60.57 -4.38 59.76 -4.05 58.75 -4.05C57.77 -4.05 56.97 -4.38 56.37 -5.04C55.77 -5.7 55.46 -6.56 55.46 -7.62L55.46 -17.6C55.46 -18.68 55.77 -19.55 56.37 -20.22C56.97 -20.88 57.77 -21.21 58.75 -21.21C59.76 -21.21 60.57 -20.88 61.17 -20.22C61.78 -19.55 62.08 -18.68 62.08 -17.6L62.08 -7.62C62.08 -6.56 61.78 -5.7 61.17 -5.04Z M74.33 -0.72C75.58 -0.05 77.02 0.29 78.66 0.29C80.3 0.29 81.75 -0.05 83 -0.72C84.25 -1.4 85.22 -2.34 85.91 -3.56C86.59 -4.78 86.94 -6.18 86.94 -7.77L86.94 -24.86C86.94 -24.98 86.89 -25.08 86.81 -25.17C86.73 -25.25 86.62 -25.29 86.5 -25.29L82.28 -25.29C82.16 -25.29 82.05 -25.25 81.97 -25.17C81.88 -25.08 81.84 -24.98 81.84 -24.86L81.84 -7.52C81.84 -6.48 81.55 -5.65 80.97 -5.02C80.4 -4.4 79.63 -4.08 78.66 -4.08C77.7 -4.08 76.93 -4.4 76.35 -5.02C75.77 -5.65 75.48 -6.48 75.48 -7.52L75.48 -24.86C75.48 -24.98 75.44 -25.08 75.36 -25.17C75.27 -25.25 75.17 -25.29 75.05 -25.29L70.82 -25.29C70.7 -25.29 70.6 -25.25 70.51 -25.17C70.43 -25.08 70.39 -24.98 70.39 -24.86L70.39 -7.77C70.39 -6.18 70.73 -4.78 71.42 -3.56C72.1 -2.34 73.07 -1.4 74.33 -0.72Z M106.61 -25.17C106.53 -25.25 106.42 -25.29 106.3 -25.29L90.04 -25.29C89.92 -25.29 89.82 -25.25 89.74 -25.17C89.65 -25.08 89.61 -24.98 89.61 -24.86L89.61 -21.32C89.61 -21.2 89.65 -21.1 89.74 -21.01C89.82 -20.93 89.92 -20.89 90.04 -20.89L95.36 -20.89C95.48 -20.89 95.54 -20.82 95.54 -20.7L95.54 -0.43C95.54 -0.31 95.58 -0.21 95.66 -0.13C95.75 -0.04 95.85 0 95.97 0L100.2 0C100.32 0 100.42 -0.04 100.5 -0.13C100.59 -0.21 100.63 -0.31 100.63 -0.43L100.63 -20.7C100.63 -20.82 100.69 -20.89 100.81 -20.89L106.3 -20.89C106.42 -20.89 106.53 -20.93 106.61 -21.01C106.7 -21.1 106.74 -21.2 106.74 -21.32L106.74 -24.86C106.74 -24.98 106.7 -25.08 106.61 -25.17Z M120.96 -25.17C120.87 -25.08 120.83 -24.98 120.83 -24.86L120.83 -15.1C120.83 -14.98 120.77 -14.92 120.65 -14.92L114.87 -14.92C114.75 -14.92 114.69 -14.98 114.69 -15.1L114.69 -24.86C114.69 -24.98 114.64 -25.08 114.56 -25.17C114.48 -25.25 114.37 -25.29 114.25 -25.29L110.03 -25.29C109.91 -25.29 109.8 -25.25 109.72 -25.17C109.63 -25.08 109.59 -24.98 109.59 -24.86L109.59 -0.43C109.59 -0.31 109.63 -0.21 109.72 -0.13C109.8 -0.04 109.91 0 110.03 0L114.25 0C114.37 0 114.48 -0.04 114.56 -0.13C114.64 -0.21 114.69 -0.31 114.69 -0.43L114.69 -10.33C114.69 -10.45 114.75 -10.51 114.87 -10.51L120.65 -10.51C120.77 -10.51 120.83 -10.45 120.83 -10.33L120.83 -0.43C120.83 -0.31 120.87 -0.21 120.96 -0.13C121.04 -0.04 121.14 0 121.26 0L125.49 0C125.61 0 125.71 -0.04 125.8 -0.13C125.88 -0.21 125.92 -0.31 125.92 -0.43L125.92 -24.86C125.92 -24.98 125.88 -25.08 125.8 -25.17C125.71 -25.25 125.61 -25.29 125.49 -25.29L121.26 -25.29C121.14 -25.29 121.04 -25.25 120.96 -25.17Z M149.75 -24.35C148.63 -25 147.35 -25.33 145.91 -25.33L137.16 -25.33C137.04 -25.33 136.94 -25.29 136.85 -25.2C136.77 -25.12 136.73 -25.02 136.73 -24.9L136.73 -0.43C136.73 -0.31 136.77 -0.21 136.85 -0.13C136.94 -0.04 137.04 0 137.16 0L141.39 0C141.51 0 141.61 -0.04 141.7 -0.13C141.78 -0.21 141.82 -0.31 141.82 -0.43L141.82 -9.83C141.82 -9.95 141.88 -10.01 142 -10.01L145.91 -10.01C147.35 -10.01 148.63 -10.32 149.75 -10.95C150.87 -11.57 151.74 -12.46 152.36 -13.6C152.97 -14.75 153.28 -16.07 153.28 -17.56C153.28 -19.08 152.97 -20.43 152.36 -21.61C151.74 -22.79 150.87 -23.7 149.75 -24.35ZM147.33 -14.98C146.77 -14.36 146.01 -14.06 145.08 -14.06L142 -14.06C141.88 -14.06 141.82 -14.12 141.82 -14.24L141.82 -20.74C141.82 -20.86 141.88 -20.92 142 -20.92L145.08 -20.92C146.01 -20.92 146.77 -20.61 147.33 -19.98C147.9 -19.36 148.18 -18.51 148.18 -17.45C148.18 -16.42 147.9 -15.59 147.33 -14.98Z M167.44 -0.36C167.51 -0.12 167.67 0 167.91 0L172.36 0C172.62 0 172.75 -0.11 172.75 -0.33L172.72 -0.47L166.18 -24.93C166.1 -25.17 165.94 -25.29 165.67 -25.29L160.43 -25.29C160.17 -25.29 160 -25.17 159.93 -24.93L153.42 -0.47C153.35 -0.16 153.47 0 153.78 0L158.16 0C158.42 0 158.59 -0.12 158.66 -0.36L159.49 -3.9C159.52 -4 159.58 -4.05 159.67 -4.05L166.43 -4.05C166.53 -4.05 166.59 -4 166.61 -3.9ZM160.54 -8.04C160.49 -8.08 160.48 -8.13 160.5 -8.2L163 -18.46C163.02 -18.54 163.06 -18.58 163.11 -18.59C163.15 -18.6 163.19 -18.56 163.21 -18.46L165.63 -8.2C165.66 -8.13 165.65 -8.08 165.6 -8.04C165.55 -8 165.5 -7.99 165.45 -7.99L160.68 -7.99C160.64 -7.99 160.59 -8 160.54 -8.04Z M186.95 -0.36C187.03 -0.12 187.19 0 187.46 0L191.87 0C192.13 0 192.27 -0.11 192.27 -0.33C192.27 -0.4 192.25 -0.46 192.23 -0.51L188.11 -10.88C188.06 -11 188.09 -11.08 188.18 -11.13C189.41 -11.68 190.37 -12.53 191.05 -13.68C191.74 -14.82 192.08 -16.16 192.08 -17.71C192.08 -19.2 191.78 -20.52 191.18 -21.68C190.58 -22.84 189.72 -23.73 188.62 -24.37C187.51 -25.01 186.24 -25.33 184.82 -25.33L176.01 -25.33C175.88 -25.33 175.78 -25.29 175.7 -25.2C175.61 -25.12 175.57 -25.02 175.57 -24.9L175.57 -0.43C175.57 -0.31 175.61 -0.21 175.7 -0.13C175.78 -0.04 175.88 0 176.01 0L180.23 0C180.35 0 180.46 -0.04 180.54 -0.13C180.62 -0.21 180.67 -0.31 180.67 -0.43L180.67 -10.3C180.67 -10.42 180.73 -10.48 180.85 -10.48L183.12 -10.48C183.2 -10.48 183.26 -10.43 183.3 -10.33ZM180.67 -20.74C180.67 -20.86 180.73 -20.92 180.85 -20.92L183.99 -20.92C184.88 -20.92 185.6 -20.63 186.16 -20.04C186.71 -19.45 186.99 -18.64 186.99 -17.63C186.99 -16.67 186.71 -15.89 186.16 -15.3C185.6 -14.71 184.88 -14.42 183.99 -14.42L180.85 -14.42C180.73 -14.42 180.67 -14.48 180.67 -14.6Z M211.18 -25.17C211.1 -25.25 210.99 -25.29 210.87 -25.29L194.61 -25.29C194.49 -25.29 194.39 -25.25 194.31 -25.17C194.22 -25.08 194.18 -24.98 194.18 -24.86L194.18 -21.32C194.18 -21.2 194.22 -21.1 194.31 -21.01C194.39 -20.93 194.49 -20.89 194.61 -20.89L199.93 -20.89C200.05 -20.89 200.11 -20.82 200.11 -20.7L200.11 -0.43C200.11 -0.31 200.15 -0.21 200.23 -0.13C200.32 -0.04 200.42 0 200.54 0L204.77 0C204.89 0 204.99 -0.04 205.07 -0.13C205.16 -0.21 205.2 -0.31 205.2 -0.43L205.2 -20.7C205.2 -20.82 205.26 -20.89 205.38 -20.89L210.87 -20.89C210.99 -20.89 211.1 -20.93 211.18 -21.01C211.27 -21.1 211.31 -21.2 211.31 -21.32L211.31 -24.86C211.31 -24.98 211.27 -25.08 211.18 -25.17Z M219.67 -0.16C219.76 -0.08 219.86 -0.04 219.98 -0.04L224.21 -0.04C224.33 -0.04 224.43 -0.08 224.51 -0.16C224.6 -0.25 224.64 -0.35 224.64 -0.47L224.64 -9.72L224.68 -9.94L230.96 -24.79C231.01 -24.93 231.01 -25.05 230.96 -25.15C230.92 -25.25 230.81 -25.29 230.64 -25.29L226.09 -25.29C225.82 -25.29 225.65 -25.17 225.58 -24.93L222.22 -15.79C222.2 -15.72 222.16 -15.68 222.11 -15.68C222.06 -15.68 222.03 -15.72 222 -15.79L218.64 -24.93C218.57 -25.17 218.4 -25.29 218.14 -25.29L213.58 -25.29C213.34 -25.29 213.22 -25.2 213.22 -25C213.22 -24.91 213.23 -24.84 213.26 -24.79L219.51 -9.94L219.55 -9.72L219.55 -0.47C219.55 -0.35 219.59 -0.25 219.67 -0.16Z"></path></g></g></svg>